<svg width="16" height="14" viewBox="0 0 16 14" fill="none" xmlns="http://www.w3.org/2000/svg">
<path d="M13.4444 1V5.5M13.4444 5.5C12.5853 5.5 11.8889 6.17155 11.8889 7C11.8889 7.82845 12.5853 8.5 13.4444 8.5M13.4444 5.5C14.3036 5.5 15 6.17155 15 7C15 7.82845 14.3036 8.5 13.4444 8.5M13.4444 8.5V13M8 1V10M8 10C7.14087 10 6.44444 10.6716 6.44444 11.5C6.44444 12.3284 7.14087 13 8 13C8.85913 13 9.55556 12.3284 9.55556 11.5C9.55556 10.6716 8.85913 10 8 10ZM2.55556 4V13M2.55556 4C3.41467 4 4.11111 3.32843 4.11111 2.5C4.11111 1.67157 3.41467 1 2.55556 1C1.69645 1 1 1.67157 1 2.5C1 3.32843 1.69645 4 2.55556 4Z" stroke="white" stroke-width="1.5" stroke-linecap="round"/>
</svg>
